{
    "asset" : {
        "generator" : "Khronos glTF Blender I/O v3.2.43",
        "version" : "2.0"
    },
    "scene" : 0,
    "scenes" : [
        {
            "name" : "Scene",
            "nodes" : [
                25
            ]
        }
    ],
    "nodes" : [
        {
            "name" : "Circle.001_4",
            "scale" : [
                0.07000001519918442,
                0.07000002264976501,
                0.07000002264976501
            ],
            "translation" : [
                1.6440823078155518,
                0.10403206944465637,
                -0.37319549918174744
            ]
        },
        {
            "name" : "Circle.002_5",
            "scale" : [
                0.07000001519918442,
                0.07000002264976501,
                0.07000002264976501
            ],
            "translation" : [
                -1.794792652130127,
                0.10403206944465637,
                0.2569946050643921
            ]
        },
        {
            "name" : "Circle.003_6",
            "scale" : [
                0.07000001519918442,
                0.07000002264976501,
                0.07000002264976501
            ],
            "translation" : [
                -1.9352363348007202,
                0.10403206944465637,
                0.12352262437343597
            ]
        },
        {
            "name" : "Circle.004_7",
            "scale" : [
                0.06999999284744263,
                0.07000000029802322,
                0.07000000029802322
            ],
            "translation" : [
                1.690000057220459,
                0,
                0.44999998807907104
            ]
        },
        {
            "name" : "Circle.005_12",
            "scale" : [
                0.13562390208244324,
                0.13562390208244324,
                0.13562390208244324
            ],
            "translation" : [
                -1.7984665632247925,
                -0.12227421998977661,
                -0.3712458312511444
            ]
        },
        {
            "name" : "Circle.006_14",
            "scale" : [
                0.13562390208244324,
                0.13562390208244324,
                0.13562390208244324
            ],
            "translation" : [
                1.7848421335220337,
                -0.1222742348909378,
                0.11948037147521973
            ]
        },
        {
            "name" : "Circle_3",
            "scale" : [
                0.07000001519918442,
                0.07000002264976501,
                0.07000002264976501
            ],
            "translation" : [
                1.784525990486145,
                0.10403206944465637,
                -0.23972350358963013
            ]
        },
        {
            "mesh" : 0,
            "name" : "joycon_L"
        },
        {
            "children" : [
                7
            ],
            "name" : "Cube.001_9",
            "rotation" : [
                -1,
                0,
                0,
                1.6283590298371564e-07
            ],
            "scale" : [
                0.2706414461135864,
                0.10000003129243851,
                1
            ],
            "translation" : [
                -1.7916271686553955,
                0,
                0.13217127323150635
            ]
        },
        {
            "mesh" : 1,
            "name" : "joycon_R"
        },
        {
            "children" : [
                9
            ],
            "name" : "Cube.002_2",
            "rotation" : [
                0,
                -1,
                0,
                1.6292068494294654e-07
            ],
            "scale" : [
                0.2706414461135864,
                0.10000003129243851,
                1
            ],
            "translation" : [
                1.784510850906372,
                0,
                0.1276136189699173
            ]
        },
        {
            "name" : "Cube.003_8",
            "scale" : [
                0.01345497090369463,
                0.013454971835017204,
                0.013454971835017204
            ],
            "translation" : [
                1.6075828075408936,
                0.11829184740781784,
                -0.6447706818580627
            ]
        },
        {
            "name" : "Cube.004_10",
            "scale" : [
                0.053403306752443314,
                0.053403306752443314,
                0.053403306752443314
            ],
            "translation" : [
                -1.7000000476837158,
                0.06330391764640808,
                0.45000001788139343
            ]
        },
        {
            "name" : "Cube.005_11",
            "rotation" : [
                0,
                0,
                1,
                3.698430387013511e-24
            ],
            "scale" : [
                -0.046097151935100555,
                -0.1095738559961319,
                -0.013399874791502953
            ],
            "translation" : [
                -1.620713233947754,
                0,
                -0.6434237957000732
            ]
        },
        {
            "mesh" : 2,
            "name" : "Object_4"
        },
        {
            "mesh" : 3,
            "name" : "Object_5"
        },
        {
            "children" : [
                14,
                15
            ],
            "name" : "Cube_1",
            "scale" : [
                1.5159780979156494,
                0.10000003129243851,
                0.8813430666923523
            ],
            "translation" : [
                -0.0031650178134441376,
                0,
                0.06330035626888275
            ]
        },
        {
            "name" : "Sphere.001_15",
            "scale" : [
                0.09805512428283691,
                0.09805512428283691,
                0.09805512428283691
            ],
            "translation" : [
                1.782544732093811,
                0.05028900131583214,
                0.1197083592414856
            ]
        },
        {
            "name" : "Sphere_13",
            "scale" : [
                0.09805512428283691,
                0.09805512428283691,
                0.09805512428283691
            ],
            "translation" : [
                -1.8007639646530151,
                0.0328575074672699,
                -0.37101781368255615
            ]
        },
        {
            "name" : "Text.001_17",
            "scale" : [
                0.08188606798648834,
                0.06734400987625122,
                0.07800915092229843
            ],
            "translation" : [
                1.6404976844787598,
                0.13433489203453064,
                -0.3608323037624359
            ]
        },
        {
            "name" : "Text.002_18",
            "scale" : [
                0.08188606798648834,
                0.06734400987625122,
                0.07800915092229843
            ],
            "translation" : [
                1.7807438373565674,
                0.13433490693569183,
                -0.2302251011133194
            ]
        },
        {
            "name" : "Text.003_19",
            "scale" : [
                0.08188606798648834,
                0.06734400987625122,
                0.07800915092229843
            ],
            "translation" : [
                1.9161052703857422,
                0.13433489203453064,
                -0.36195671558380127
            ]
        },
        {
            "name" : "Text_16",
            "scale" : [
                0.08900577574968338,
                0.08900577574968338,
                0.1131696030497551
            ],
            "translation" : [
                1.783817172050476,
                0.13433490693569183,
                -0.504757285118103
            ]
        },
        {
            "children" : [
                0,
                1,
                2,
                3,
                4,
                5,
                6,
                8,
                10,
                11,
                12,
                13,
                16,
                17,
                18,
                19,
                20,
                21,
                22
            ],
            "name" : "GLTF_SceneRootNode",
            "rotation" : [
                0.7071068286895752,
                0,
                0,
                0.7071067094802856
            ]
        },
        {
            "children" : [
                23
            ],
            "name" : "root"
        },
        {
            "children" : [
                24
            ],
            "name" : "Sketchfab_model",
            "rotation" : [
                -0.0025094440206885338,
                0,
                0,
                0.9999968409538269
            ]
        }
    ],
    "materials" : [
        {
            "doubleSided" : true,
            "name" : "Material.004",
            "pbrMetallicRoughness" : {
                "baseColorFactor" : [
                    0,
                    0.2967129945755005,
                    0.715694010257721,
                    1
                ],
                "metallicFactor" : 0,
                "roughnessFactor" : 0.5
            }
        },
        {
            "doubleSided" : true,
            "name" : "Material.002",
            "pbrMetallicRoughness" : {
                "baseColorFactor" : [
                    0.00945081003010273,
                    0.00945081003010273,
                    0.00945081003010273,
                    1
                ],
                "metallicFactor" : 0,
                "roughnessFactor" : 0.5
            }
        },
        {
            "doubleSided" : true,
            "name" : "material_0",
            "pbrMetallicRoughness" : {
                "metallicFactor" : 0,
                "roughnessFactor" : 0.6000000238418579
            }
        },
        {
            "doubleSided" : true,
            "name" : "Material.003",
            "pbrMetallicRoughness" : {
                "baseColorFactor" : [
                    0.800000011920929,
                    0.014339099638164043,
                    0,
                    1
                ],
                "metallicFactor" : 0,
                "roughnessFactor" : 0.5
            }
        },
        {
            "doubleSided" : true,
            "name" : "Material.005",
            "pbrMetallicRoughness" : {
                "baseColorFactor" : [
                    0,
                    0,
                    0,
                    1
                ],
                "metallicFactor" : 0,
                "roughnessFactor" : 0
            }
        }
    ],
    "meshes" : [
        {
            "name" : "Object_11",
            "primitives" : [
                {
                    "attributes" : {
                        "POSITION" : 0,
                        "NORMAL" : 1,
                        "TEXCOORD_0" : 2
                    },
                    "indices" : 3,
                    "material" : 0
                },
                {
                    "attributes" : {
                        "POSITION" : 4,
                        "NORMAL" : 5,
                        "TEXCOORD_0" : 6
                    },
                    "indices" : 7,
                    "material" : 1
                },
                {
                    "attributes" : {
                        "POSITION" : 8,
                        "NORMAL" : 9,
                        "TEXCOORD_0" : 10
                    },
                    "indices" : 11,
                    "material" : 2
                }
            ]
        },
        {
            "name" : "Object_2",
            "primitives" : [
                {
                    "attributes" : {
                        "POSITION" : 12,
                        "NORMAL" : 13,
                        "TEXCOORD_0" : 14
                    },
                    "indices" : 15,
                    "material" : 3
                },
                {
                    "attributes" : {
                        "POSITION" : 16,
                        "NORMAL" : 17,
                        "TEXCOORD_0" : 18
                    },
                    "indices" : 19,
                    "material" : 1
                },
                {
                    "attributes" : {
                        "POSITION" : 20,
                        "NORMAL" : 21,
                        "TEXCOORD_0" : 22
                    },
                    "indices" : 23,
                    "material" : 2
                }
            ]
        },
        {
            "name" : "Object_0",
            "primitives" : [
                {
                    "attributes" : {
                        "POSITION" : 24,
                        "NORMAL" : 25,
                        "TEXCOORD_0" : 26
                    },
                    "indices" : 27,
                    "material" : 4
                }
            ]
        },
        {
            "name" : "Object_1",
            "primitives" : [
                {
                    "attributes" : {
                        "POSITION" : 28,
                        "NORMAL" : 29,
                        "TEXCOORD_0" : 30
                    },
                    "indices" : 31,
                    "material" : 1
                }
            ]
        }
    ],
    "accessors" : [
        {
            "bufferView" : 0,
            "componentType" : 5126,
            "count" : 195,
            "max" : [
                1.003542423248291,
                1.1384778022766113,
                0.9696932435035706
            ],
            "min" : [
                -1.138931155204773,
                -1,
                -0.8227589130401611
            ],
            "type" : "VEC3"
        },
        {
            "bufferView" : 1,
            "componentType" : 5126,
            "count" : 195,
            "type" : "VEC3"
        },
        {
            "bufferView" : 2,
            "componentType" : 5126,
            "count" : 195,
            "type" : "VEC2"
        },
        {
            "bufferView" : 3,
            "componentType" : 5123,
            "count" : 390,
            "type" : "SCALAR"
        },
        {
            "bufferView" : 4,
            "componentType" : 5126,
            "count" : 7723,
            "max" : [
                1.0035427808761597,
                1.2227438688278198,
                0.9696932435035706
            ],
            "min" : [
                -0.9553942084312439,
                -1.9632371664047241,
                -0.3712320327758789
            ],
            "type" : "VEC3"
        },
        {
            "bufferView" : 5,
            "componentType" : 5126,
            "count" : 7723,
            "type" : "VEC3"
        },
        {
            "bufferView" : 6,
            "componentType" : 5126,
            "count" : 7723,
            "type" : "VEC2"
        },
        {
            "bufferView" : 7,
            "componentType" : 5123,
            "count" : 25410,
            "type" : "SCALAR"
        },
        {
            "bufferView" : 8,
            "componentType" : 5126,
            "count" : 112,
            "max" : [
                0.3217744827270508,
                -0.7902162671089172,
                0.5997531414031982
            ],
            "min" : [
                -0.3872036635875702,
                -0.9669542908668518,
                0.4078742563724518
            ],
            "type" : "VEC3"
        },
        {
            "bufferView" : 9,
            "componentType" : 5126,
            "count" : 112,
            "type" : "VEC3"
        },
        {
            "bufferView" : 10,
            "componentType" : 5126,
            "count" : 112,
            "type" : "VEC2"
        },
        {
            "bufferView" : 11,
            "componentType" : 5123,
            "count" : 282,
            "type" : "SCALAR"
        },
        {
            "bufferView" : 12,
            "componentType" : 5126,
            "count" : 214,
            "max" : [
                1,
                1.1384778022766113,
                0.952524721622467
            ],
            "min" : [
                -1.138931155204773,
                -1,
                -0.8227589130401611
            ],
            "type" : "VEC3"
        },
        {
            "bufferView" : 13,
            "componentType" : 5126,
            "count" : 214,
            "type" : "VEC3"
        },
        {
            "bufferView" : 14,
            "componentType" : 5126,
            "count" : 214,
            "type" : "VEC2"
        },
        {
            "bufferView" : 15,
            "componentType" : 5123,
            "count" : 336,
            "type" : "SCALAR"
        },
        {
            "bufferView" : 16,
            "componentType" : 5126,
            "count" : 4783,
            "max" : [
                1.0035418272018433,
                1.9632384777069092,
                0.9696931838989258
            ],
            "min" : [
                -0.9553951621055603,
                -1.2227418422698975,
                -0.3923863172531128
            ],
            "type" : "VEC3"
        },
        {
            "bufferView" : 17,
            "componentType" : 5126,
            "count" : 4783,
            "type" : "VEC3"
        },
        {
            "bufferView" : 18,
            "componentType" : 5126,
            "count" : 4783,
            "type" : "VEC2"
        },
        {
            "bufferView" : 19,
            "componentType" : 5123,
            "count" : 22254,
            "type" : "SCALAR"
        },
        {
            "bufferView" : 20,
            "componentType" : 5126,
            "count" : 1468,
            "max" : [
                0.607757568359375,
                1.3433486223220825,
                0.6577775478363037
            ],
            "min" : [
                -0.6124014854431152,
                1.0403203964233398,
                -0.07814476639032364
            ],
            "type" : "VEC3"
        },
        {
            "bufferView" : 21,
            "componentType" : 5126,
            "count" : 1468,
            "type" : "VEC3"
        },
        {
            "bufferView" : 22,
            "componentType" : 5126,
            "count" : 1468,
            "type" : "VEC2"
        },
        {
            "bufferView" : 23,
            "componentType" : 5123,
            "count" : 1932,
            "type" : "SCALAR"
        },
        {
            "bufferView" : 24,
            "componentType" : 5126,
            "count" : 42,
            "max" : [
                0.8787257671356201,
                1.0000001192092896,
                0.8446486592292786
            ],
            "min" : [
                -0.8787257671356201,
                1.0000001192092896,
                -0.8446486592292786
            ],
            "type" : "VEC3"
        },
        {
            "bufferView" : 25,
            "componentType" : 5126,
            "count" : 42,
            "type" : "VEC3"
        },
        {
            "bufferView" : 26,
            "componentType" : 5126,
            "count" : 42,
            "type" : "VEC2"
        },
        {
            "bufferView" : 27,
            "componentType" : 5123,
            "count" : 102,
            "type" : "SCALAR"
        },
        {
            "bufferView" : 28,
            "componentType" : 5126,
            "count" : 1402,
            "max" : [
                1,
                1.0000001192092896,
                1
            ],
            "min" : [
                -1,
                -1,
                -1
            ],
            "type" : "VEC3"
        },
        {
            "bufferView" : 29,
            "componentType" : 5126,
            "count" : 1402,
            "type" : "VEC3"
        },
        {
            "bufferView" : 30,
            "componentType" : 5126,
            "count" : 1402,
            "type" : "VEC2"
        },
        {
            "bufferView" : 31,
            "componentType" : 5123,
            "count" : 3294,
            "type" : "SCALAR"
        }
    ],
    "bufferViews" : [
        {
            "buffer" : 0,
            "byteLength" : 2340,
            "byteOffset" : 0
        },
        {
            "buffer" : 0,
            "byteLength" : 2340,
            "byteOffset" : 2340
        },
        {
            "buffer" : 0,
            "byteLength" : 1560,
            "byteOffset" : 4680
        },
        {
            "buffer" : 0,
            "byteLength" : 780,
            "byteOffset" : 6240
        },
        {
            "buffer" : 0,
            "byteLength" : 92676,
            "byteOffset" : 7020
        },
        {
            "buffer" : 0,
            "byteLength" : 92676,
            "byteOffset" : 99696
        },
        {
            "buffer" : 0,
            "byteLength" : 61784,
            "byteOffset" : 192372
        },
        {
            "buffer" : 0,
            "byteLength" : 50820,
            "byteOffset" : 254156
        },
        {
            "buffer" : 0,
            "byteLength" : 1344,
            "byteOffset" : 304976
        },
        {
            "buffer" : 0,
            "byteLength" : 1344,
            "byteOffset" : 306320
        },
        {
            "buffer" : 0,
            "byteLength" : 896,
            "byteOffset" : 307664
        },
        {
            "buffer" : 0,
            "byteLength" : 564,
            "byteOffset" : 308560
        },
        {
            "buffer" : 0,
            "byteLength" : 2568,
            "byteOffset" : 309124
        },
        {
            "buffer" : 0,
            "byteLength" : 2568,
            "byteOffset" : 311692
        },
        {
            "buffer" : 0,
            "byteLength" : 1712,
            "byteOffset" : 314260
        },
        {
            "buffer" : 0,
            "byteLength" : 672,
            "byteOffset" : 315972
        },
        {
            "buffer" : 0,
            "byteLength" : 57396,
            "byteOffset" : 316644
        },
        {
            "buffer" : 0,
            "byteLength" : 57396,
            "byteOffset" : 374040
        },
        {
            "buffer" : 0,
            "byteLength" : 38264,
            "byteOffset" : 431436
        },
        {
            "buffer" : 0,
            "byteLength" : 44508,
            "byteOffset" : 469700
        },
        {
            "buffer" : 0,
            "byteLength" : 17616,
            "byteOffset" : 514208
        },
        {
            "buffer" : 0,
            "byteLength" : 17616,
            "byteOffset" : 531824
        },
        {
            "buffer" : 0,
            "byteLength" : 11744,
            "byteOffset" : 549440
        },
        {
            "buffer" : 0,
            "byteLength" : 3864,
            "byteOffset" : 561184
        },
        {
            "buffer" : 0,
            "byteLength" : 504,
            "byteOffset" : 565048
        },
        {
            "buffer" : 0,
            "byteLength" : 504,
            "byteOffset" : 565552
        },
        {
            "buffer" : 0,
            "byteLength" : 336,
            "byteOffset" : 566056
        },
        {
            "buffer" : 0,
            "byteLength" : 204,
            "byteOffset" : 566392
        },
        {
            "buffer" : 0,
            "byteLength" : 16824,
            "byteOffset" : 566596
        },
        {
            "buffer" : 0,
            "byteLength" : 16824,
            "byteOffset" : 583420
        },
        {
            "buffer" : 0,
            "byteLength" : 11216,
            "byteOffset" : 600244
        },
        {
            "buffer" : 0,
            "byteLength" : 6588,
            "byteOffset" : 611460
        }
    ],
    "buffers" : [
        {
            "byteLength" : 618048,
            "uri" : "data:application/octet-stream;base64,"
        }
    ]
}
